<html>
<head>
<meta charset="UTF-8">
<meta name="viewport" content="width=device-width, initial-scale=1.0"/>

<style>
.comment
{
    padding-left: 20px;
    margin-top: 4px;
    margin-right: 4px;
    margin-bottom: 4px;
    border: 2px #000 solid;
}
.submission
{
    border: 4px #00f solid;
    padding-left: 20px;
}
.hidden
{
    display: none;
}
</style>
</head>
<body><div class="submission" id="t3_642k1p">
    <p class="userinfo">
        <a href="https://www.reddit.com/u/vcdupper">vcdupper</a>
        <span class="score"> | 43 points</span>
        <span class="timestamp"> | Apr 07 2017 19:26:21</span>
    </p>
    <strong>[MOVIE] Warcraft.The.Beginning.2016.BluRay.1080p.AC-3.TrueHD-7.1.Atmos.HEVC-d3g[PRiME] [5.77GB]</strong>
    <p><p>Add mega<br>
.nz/#!gaZEmSZY<br>
!3X629h6QvQZX7xGpA6rScEBRaZgTbUxb5SIVm_Co-dA  </p>
<hr>
<p>Complete name : Warcraft-The Beginning 2016 BluRay 1080p AC-3 TrueHD-7.1 Atmos HEVC-d3g[PRiME].mkv<br>
Format : Matroska<br>
Format version : Version 4 / Version 2<br>
File size : 5.77 GiB<br>
Duration : 2h03 min<br>
Overall bit rate mode : Variable<br>
Overall bit rate : 6,706 kb/s<br>
Movie name : Warcraft-The Beginning 2016 BluRay 1080p AC-3 TrueHD-7.1 Atmos HEVC-d3g<br>
Encoded date : UTC 2017-03-28 15:51:28<br>
Writing application : DVDFab 10.0.2.9<br>
Writing library : libebml v1.3.4 + libmatroska v1.4.5  </p>
<p>Video<br>
ID : 1<br>
Format : HEVC<br>
Format/Info : High Efficiency Video Coding<br>
Format profile : Main@L4@Main<br>
Codec ID : V_MPEGH/ISO/HEVC<br>
Duration : 2h 03min<br>
Bit rate : 1,796 kb/s<br>
Width : 1,920 pixels<br>
Height : 792 pixels<br>
Display aspect ratio : 2.40:1<br>
Frame rate mode : Constant<br>
Frame rate : 23.976 (24000/1001) FPS<br>
Color space : YUV<br>
Chroma subsampling : 4:2:0<br>
Bit depth : 8 bits<br>
Bits/(Pixel*Frame) : 0.049<br>
Stream size : 1.54 GiB (27%)<br>
Default : Yes<br>
Forced : No  </p>
<p>Audio<br>
ID : 2<br>
Format : Atmos / TrueHD<br>
Codec ID : A_TRUEHD<br>
Duration : 2 h 3 min<br>
Bit rate mode : Variable<br>
Bit rate : 4,835 kb/s<br>
Maximum bit rate : 7,893 kb/s<br>
Channel(s) : Object Based / 8 channels<br>
Channel positions : Object Based / Front: L C R, Side: L R, Back: L R, LFE<br>
Sampling rate : / 48.0 kHz<br>
Frame rate : 1,200.000 FPS (40 spf)<br>
Compression mode : Lossless<br>
Stream size : 4.16 GiB (72%)<br>
Language : English<br>
Default : Yes<br>
Forced : No  </p>
<p>Text<br>
ID : 3<br>
Format : VobSub<br>
Codec ID : S_VOBSUB<br>
Codec ID/Info : Picture based subtitle format used on DVDs<br>
Duration : 1h53min<br>
Bit rate : 7,544 b/s<br>
Count of elements : 1394<br>
Stream size : 6.14 MiB (0%)<br>
Language : English<br>
Default : No<br>
Forced : No  </p>
<hr>
<h3><a href="https://youtu.be/ixZnhA7Wmq4">Unsure How To Download?</a>  &lt;------CLICK HERE!!!</h3></p>
    <p class="toolbar">
        <a href="https://www.reddit.com/r/megalinks/comments/642k1p">permalink</a>
    </p>
</div>
<div class="comment" id="t1_dfywfkl">
    <p class="userinfo">
        <a
        class="toggle_hide_button"
        href="javascript:void(0)"
        onclick="toggle_collapse(this.parentElement.parentElement)">[-]
        </a>
        <a href="https://www.reddit.com/u/bringer1111">bringer1111</a>
        <span class="score"> | 2 points</span>
        <span class="timestamp"> | Apr 07 2017 19:34:40</span>
    </p>
    <div class="collapsible">
        <p>thanks, wonder if its actually any good.</p>
        <p class="toolbar">
            <a href="https://www.reddit.com/r/megalinks/comments/642k1p/_/dfywfkl">permalink</a>
        </p>
        <div class="comment" id="t1_dfzmi2b">
    <p class="userinfo">
        <a
        class="toggle_hide_button"
        href="javascript:void(0)"
        onclick="toggle_collapse(this.parentElement.parentElement)">[-]
        </a>
        <a href="https://www.reddit.com/u/hahayeahthatscool">hahayeahthatscool</a>
        <span class="score"> | 4 points</span>
        <span class="timestamp"> | Apr 08 2017 06:44:03</span>
    </p>
    <div class="collapsible">
        <p>it's super good if ur into warcraft, man when the orcs salute lothar i got chills</p>
        <p class="toolbar">
            <a href="https://www.reddit.com/r/megalinks/comments/642k1p/_/dfzmi2b">permalink</a>
        </p>
        
    </div>
</div>
    </div>
</div>

<div class="comment" id="t1_dfyzpsz">
    <p class="userinfo">
        <a
        class="toggle_hide_button"
        href="javascript:void(0)"
        onclick="toggle_collapse(this.parentElement.parentElement)">[-]
        </a>
        <a href="https://www.reddit.com/u/Redditor20121">Redditor20121</a>
        <span class="score"> | 1 points</span>
        <span class="timestamp"> | Apr 07 2017 20:37:34</span>
    </p>
    <div class="collapsible">
        <p>Wow. Audio Stream Size: 4.16 GB/ Video Size: 1.54 GB
Audio quality is probably great but video will be lacking.</p>
        <p class="toolbar">
            <a href="https://www.reddit.com/r/megalinks/comments/642k1p/_/dfyzpsz">permalink</a>
        </p>
        
    </div>
</div>

<div class="comment" id="t1_dfzxpjf">
    <p class="userinfo">
        <a
        class="toggle_hide_button"
        href="javascript:void(0)"
        onclick="toggle_collapse(this.parentElement.parentElement)">[-]
        </a>
        <a href="https://www.reddit.com/u/joshmaaaaaaans">joshmaaaaaaans</a>
        <span class="score"> | 1 points</span>
        <span class="timestamp"> | Apr 08 2017 14:57:05</span>
    </p>
    <div class="collapsible">
        <p>Audio is fucked for me, maybe I downloaded it wrong.</p>
<p>Edit:  Got it working with MPC, not sure why it's so screwed with VLC.</p>
        <p class="toolbar">
            <a href="https://www.reddit.com/r/megalinks/comments/642k1p/_/dfzxpjf">permalink</a>
        </p>
        
    </div>
</div>
</body>

<script>
function toggle_collapse(comment_div)
{
    var button = comment_div.getElementsByClassName("toggle_hide_button")[0];
    var collapsible = comment_div.getElementsByClassName("collapsible")[0];
    if (collapsible.classList.contains("hidden"))
    {
        collapsible.classList.remove("hidden");
        button.innerText = "[-]";
    }
    else
    {
        collapsible.classList.add("hidden");
        button.innerText = "[+]";
    }
}
</script>
</html>
